<svg class="svg-icon" style="width: 1em;height: 1em;vertical-align: middle;fill: currentColor;overflow: hidden;" viewBox="0 0 1024 1024" version="1.1" xmlns="http://www.w3.org/2000/svg"><path d="M917.2992 659.3024c-11.9808-191.232-156.8256-347.0336-343.0912-375.7568 13.312-14.848 21.504-34.3552 21.504-55.808 0-46.1312-37.5296-83.6608-83.6608-83.6608s-83.6608 37.5296-83.6608 83.6608c0 21.4528 8.192 40.96 21.504 55.808-186.3168 28.7232-331.1616 184.5248-343.1424 375.7568-39.7824 13.1584-68.608 50.6368-68.608 94.7712 0 55.04 44.8 99.84 99.84 99.84h748.032c55.0912 0 99.8912-44.8 99.8912-99.84 0-44.1344-28.8256-81.6128-68.608-94.7712z m-405.248-453.7856c12.2368 0 22.2208 9.984 22.2208 22.2208 0 12.2368-9.984 22.2208-22.2208 22.2208-12.2368 0-22.2208-9.984-22.2208-22.2208 0-12.2368 9.984-22.2208 22.2208-22.2208z m0 134.7072c179.712 0 327.7824 138.24 343.3984 314.0096H168.6528c15.616-175.7696 163.6352-314.0096 343.3984-314.0096z m374.016 452.3008H138.0352c-21.1968 0-38.4-17.2544-38.4-38.4s17.2544-38.4 38.4-38.4h748.032c21.1968 0 38.4512 17.2544 38.4512 38.4s-17.3056 38.4-38.4512 38.4z" fill="#FF6C39" /><path d="M608.8192 413.696c-15.7184-6.3488-33.6384 1.1776-39.9872 16.9472-6.4 15.7184 1.2288 33.6384 16.9472 39.9872 0.8192 0.3584 84.3776 34.9184 110.7968 107.52a30.74048 30.74048 0 0 0 39.3728 18.3808 30.76096 30.76096 0 0 0 18.3808-39.3728c-35.7376-97.9968-141.056-141.6192-145.5104-143.4624z" fill="#FF6C39" /></svg>